ooooo ooo ooooo ooo o8o .oooooo. ooooo ooo oooooooooooo
`888' `8' `888b. `8' `"' d8P' `Y8b `888' `8' `888' `8
888 8 8 `88b. 8 oooo 888 888 888 8 888
888 8 8 `88b. 8 `888 888 888 888 8 888oooo8
888 8 8 `88b.8 888 888 888 888 8 888 "
`88. .8' 8 `888 888 `88b d88b `88. .8' 888 o
`YbodP' o8o `8 o888o `Y8bood8P'Ybd' `YbodP' o888ooooood8


.........why be the same as everyone else when YOU can be UNiQUE.........


Format : AVI
Format/Info : Audio Video Interleave
File size : 1.93 GiB
Duration : 2h 36mn
Overall bit rate : 1 761 Kbps
Writing library : VirtualDub build 32842/release


Video
ID : 0
Format : MPEG-4 Visual
Format profile : Advanced Simple@L5
Format settings, BVOP : 2
Format settings, QPel : No
Format settings, GMC : No warppoints
Format settings, Matrix : Default (H.263)
Muxing mode : Packed bitstream
Codec ID : XVID
Codec ID/Hint : XviD
Duration : 2h 36mn
Bit rate : 1 493 Kbps
Width : 720 pixels
Height : 288 pixels
Display aspect ratio : 2.500
Frame rate : 29.970 fps
Color space : YUV
Chroma subsampling : 4:2:0
Bit depth : 8 bits
Scan type : Progressive
Compression mode : Lossy
Bits/(Pixel*Frame) : 0.240
Stream size : 1.63 GiB (85%)
Writing library : XviD 64


Audio
ID : 1
Format : MPEG Audio
Format version : Version 1
Format profile : Layer 3
Mode : Joint stereo
Mode extension : MS Stereo
Codec ID : 55
Codec ID/Hint : MP3
Duration : 2h 36mn
Bit rate mode : Constant
Bit rate : 256 Kbps
Channel(s) : 2 channels
Sampling rate : 48.0 KHz
Compression mode : Lossy
Delay relative to video : 985ms
Stream size : 287 MiB (15%)
Alignment : Split accross interleaves
Interleave, duration : 33 ms (1.00 video frame)
Interleave, preload duration : 500 ms
Writing library : LAME3.99r
Encoding settings : -m j -V 4 -q 2 -lowpass 19.7

 
http://www.imdb.com/title/tt1345836/

Ratings: 9.2/10 from 104,612 users Metascore: 78/100
Reviews: 1,073 user | 183 critic | 43 from Metacritic.com

Eight years on, a new terrorist leader, Bane, overwhelms Gotham's finest, and 
the Dark Knight resurfaces to protect a city

that has branded him an enemy.


Director:
Christopher Nolan

Writers:
Jonathan Nolan (screenplay), Christopher Nolan (screenplay), and 3 more credits ┬╗

Stars:
Christian Bale, Michael Caine and Gary Oldman


Source Used
26K files...........Thanks


Heres a 1st look at The Dark Knight Rises as you can see from the screens its not greatest but then again they rarely are,1st cams ....Use it is a guide,stepping stone whatever you wanna call it to just have a look


Dropped saturation,changed hue,levels,denoised,contrast and many more but check 
out sample

Better audio is on way and better vid so i believe


Poster:

 
http://i.imgur.com/sbT7Q.png


Screenshots:

 
http://i.imgur.com/VcZpb.png

 
http://i.imgur.com/h1rzn.png

 
http://i.imgur.com/dcRWA.png


ENJOY!